<?xml version="1.0" encoding="UTF-8"?>
<svg xmlns="http://www.w3.org/2000/svg" xmlns:xlink="http://www.w3.org/1999/xlink" width="250px" height="250px" viewBox="0 0 250 250" version="1.1">
<g id="surface1">
<path style=" stroke:none;fill-rule:evenodd;fill:rgb(96.862745%,97.647059%,97.647059%);fill-opacity:1;" d="M 124.757812 93.453125 C 124.351562 93.515625 122.039062 95.640625 118.070312 99.59375 L 112 105.636719 L 112.007812 113.878906 C 112.015625 122.550781 112.023438 122.597656 113.171875 123.210938 C 114.242188 123.78125 137.238281 123.59375 138 123.007812 L 138.625 122.527344 L 138.660156 114.703125 C 138.703125 104.730469 139.328125 106.277344 132.511719 99.445312 C 126.796875 93.722656 126.164062 93.230469 124.757812 93.453125 M 123.136719 107.613281 C 124.105469 108.582031 124.078125 114.570312 123.101562 115.730469 C 122.128906 116.890625 120.214844 116.867188 119.496094 115.6875 C 118.765625 114.484375 118.765625 109.015625 119.496094 107.8125 C 120.160156 106.722656 122.136719 106.613281 123.136719 107.613281 M 130.984375 107.726562 C 131.863281 108.960938 131.757812 114.921875 130.839844 115.839844 C 129.980469 116.699219 128.429688 116.753906 127.578125 115.957031 C 126.710938 115.140625 126.683594 108.492188 127.542969 107.578125 C 128.398438 106.671875 130.289062 106.75 130.984375 107.726562 M 67.625 145.589844 C 65.820312 146.433594 64.871094 147.332031 64.074219 148.949219 L 63.375 150.375 L 63.402344 159.808594 L 63.433594 169.238281 L 64.113281 170.132812 C 64.757812 170.976562 64.863281 171.019531 66.078125 170.949219 C 68.292969 170.820312 68.5 170.261719 68.5 164.363281 C 68.5 158.71875 68.105469 159.25 72.28125 159.25 C 76.453125 159.25 77.519531 158.582031 77.121094 156.222656 C 76.855469 154.652344 75.609375 154.03125 72.75 154.050781 C 71.855469 154.054688 70.535156 154.046875 69.8125 154.03125 L 68.5 154 L 68.5 150.5 L 73.386719 150.5 C 77.234375 150.5 78.429688 150.421875 78.996094 150.125 C 80.804688 149.191406 81.089844 147.019531 79.566406 145.769531 L 78.636719 145 L 73.753906 145.003906 C 69.167969 145.003906 68.800781 145.039062 67.625 145.589844 M 133.472656 145.375 C 131.867188 146.25 131.882812 146.125 131.792969 157.125 C 131.703125 168.554688 131.761719 169.441406 132.675781 170.355469 C 133.761719 171.441406 135.464844 171.285156 136.566406 170 L 137.421875 169 L 139.546875 169 C 152.835938 169 156.191406 150.695312 143.75 146.078125 C 140.6875 144.941406 134.988281 144.550781 133.472656 145.375 M 108.851562 146.101562 L 108 146.949219 L 108 157.867188 C 108 165.460938 108.085938 168.949219 108.28125 169.328125 C 109.238281 171.183594 110.882812 171.578125 112.195312 170.265625 C 113.144531 169.316406 113.25 168.492188 113.25 161.980469 C 113.25 155.960938 113.308594 155.839844 114.902344 158.433594 C 115.558594 159.5 116.410156 160.785156 116.796875 161.285156 C 117.183594 161.785156 117.5 162.269531 117.5 162.363281 C 117.5 162.453125 117.933594 163.167969 118.464844 163.953125 C 118.996094 164.734375 119.652344 165.824219 119.921875 166.375 C 121.984375 170.558594 123.445312 171.742188 125.414062 170.832031 C 126.757812 170.207031 126.769531 170.066406 126.695312 157.9375 L 126.625 146.761719 L 125.976562 146.113281 C 125.207031 145.34375 123.667969 145.078125 122.75 145.554688 C 121.425781 146.246094 121.242188 147.152344 121.359375 152.375 C 121.515625 159.09375 121.300781 159.867188 119.988281 157.355469 C 118.875 155.222656 117.324219 152.660156 116.585938 151.726562 C 116.195312 151.230469 115.15625 149.753906 114.28125 148.449219 C 111.980469 145.019531 110.550781 144.398438 108.851562 146.101562 M 90.375 145.789062 C 80.953125 148.917969 79.441406 161.28125 87.824219 166.597656 C 90.121094 168.050781 93.082031 168.488281 94.761719 167.617188 L 95.5 167.238281 L 95.5 163.90625 C 95.5 160.273438 95.484375 160.234375 93.875 159.441406 C 92.65625 158.839844 91 159.570312 90.476562 160.9375 C 89.515625 163.449219 86.980469 157.964844 87.800781 155.152344 C 88.808594 151.707031 90.523438 150.554688 93.988281 151 C 97.421875 151.4375 97.84375 152.613281 98 162.25 C 98.089844 167.765625 98.214844 170.027344 98.441406 170.433594 C 99.390625 172.09375 101.863281 171.738281 102.660156 169.832031 C 103.109375 168.757812 103.144531 155.554688 102.703125 153.355469 C 101.613281 147.910156 95.425781 144.109375 90.375 145.789062 M 174.019531 146.066406 C 169.371094 147.597656 165.9375 153.390625 166.757812 158.324219 C 167.527344 162.957031 171.585938 167.527344 175.480469 168.152344 C 176.675781 168.34375 176.679688 168.335938 175.90625 166.804688 C 175.578125 166.15625 175.125 164.90625 174.898438 164.027344 C 174.621094 162.925781 174.222656 162.128906 173.636719 161.476562 C 170.65625 158.179688 171.355469 152.863281 174.972656 151.308594 C 180.453125 148.949219 185.628906 154.449219 182.808594 159.625 C 182.085938 160.941406 181 161.515625 181 160.578125 C 180.996094 159.855469 180.074219 158.539062 179.191406 158 C 176.316406 156.246094 174.34375 160.359375 176.050781 164.53125 C 178.054688 169.410156 181.386719 172 185.652344 172 C 190.480469 171.996094 190.875 167.675781 186.136719 166.734375 C 184.449219 166.398438 183.859375 165.863281 184.675781 165.40625 C 185.429688 164.988281 186.671875 163.59375 187.402344 162.351562 C 192.589844 153.5 183.832031 142.839844 174.019531 146.066406 M 158.59375 146.921875 C 156.828125 147.273438 156.496094 148.941406 156.515625 157.347656 C 156.550781 169.660156 156.832031 171 159.390625 171 C 161.636719 171 161.742188 170.417969 161.746094 158.429688 C 161.75 147.40625 161.722656 147.238281 159.875 146.9375 C 159.460938 146.867188 158.886719 146.863281 158.59375 146.921875 M 142.125 151.007812 C 146.710938 152.363281 147.792969 158.914062 143.941406 162.019531 C 142.191406 163.433594 141.78125 163.578125 139.5 163.601562 L 137.375 163.625 L 137.308594 157.40625 C 137.257812 152.746094 137.320312 151.09375 137.550781 150.8125 C 137.90625 150.386719 140.375 150.492188 142.125 151.007812 "/>
<path style=" stroke:none;fill-rule:evenodd;fill:rgb(8.235294%,14.901961%,19.215686%);fill-opacity:1;" d="M 126.851562 62.9375 C 126.992188 63.179688 126.230469 63.25 123.40625 63.25 C 121.257812 63.25 119.714844 63.351562 119.625 63.5 C 119.539062 63.636719 118.859375 63.75 118.109375 63.75 C 117.363281 63.75 116.75 63.863281 116.75 64 C 116.75 64.136719 116.242188 64.25 115.625 64.25 C 115.007812 64.25 114.5 64.363281 114.5 64.5 C 114.5 64.636719 114.105469 64.75 113.625 64.75 C 113.144531 64.75 112.75 64.863281 112.75 65 C 112.75 65.136719 112.414062 65.25 112 65.25 C 111.585938 65.25 111.25 65.363281 111.25 65.5 C 111.25 65.636719 110.96875 65.75 110.625 65.75 C 110.28125 65.75 110 65.863281 110 66 C 110 66.136719 109.773438 66.25 109.5 66.25 C 109.226562 66.25 109 66.363281 109 66.5 C 109 66.636719 108.71875 66.75 108.375 66.75 C 108.03125 66.75 107.75 66.863281 107.75 67 C 107.75 67.136719 107.46875 67.25 107.125 67.25 C 106.78125 67.25 106.5 67.363281 106.5 67.5 C 106.5 67.636719 106.21875 67.75 105.875 67.75 C 105.53125 67.75 105.25 67.863281 105.25 68 C 105.25 68.136719 105.078125 68.25 104.871094 68.25 C 104.390625 68.25 103.496094 68.75 102.972656 69.3125 C 102.75 69.554688 102.40625 69.75 102.214844 69.75 C 102.019531 69.75 101.699219 69.976562 101.5 70.25 C 101.300781 70.523438 100.992188 70.75 100.8125 70.75 C 100.632812 70.75 99.835938 71.425781 99.039062 72.25 C 98.246094 73.074219 97.460938 73.75 97.292969 73.75 C 96.917969 73.75 91.75 78.894531 91.75 79.273438 C 91.75 79.425781 91.414062 79.863281 91 80.25 C 90.585938 80.636719 90.25 81.105469 90.25 81.296875 C 90.25 81.484375 90.023438 81.800781 89.75 82 C 89.476562 82.199219 89.25 82.5625 89.25 82.804688 C 89.25 83.050781 89.136719 83.25 89 83.25 C 88.863281 83.25 88.75 83.476562 88.75 83.75 C 88.75 84.023438 88.636719 84.25 88.5 84.25 C 88.363281 84.25 88.25 84.476562 88.25 84.75 C 88.25 85.023438 88.136719 85.25 88 85.25 C 87.863281 85.25 87.75 85.476562 87.75 85.75 C 87.75 86.023438 87.636719 86.25 87.5 86.25 C 87.363281 86.25 87.25 86.449219 87.25 86.695312 C 87.25 86.9375 87.023438 87.300781 86.75 87.5 C 86.476562 87.699219 86.25 88.0625 86.25 88.304688 C 86.25 88.550781 86.136719 88.75 86 88.75 C 85.863281 88.75 85.75 88.976562 85.75 89.25 C 85.75 89.523438 85.636719 89.75 85.5 89.75 C 85.363281 89.75 85.25 90.082031 85.25 90.484375 C 85.25 90.890625 85.136719 91.289062 85 91.375 C 84.863281 91.460938 84.75 91.859375 84.75 92.265625 C 84.75 92.667969 84.636719 93 84.5 93 C 84.363281 93 84.25 93.402344 84.25 93.890625 C 84.25 94.417969 84.148438 94.71875 84 94.625 C 83.847656 94.53125 83.75 94.914062 83.75 95.609375 C 83.75 96.238281 83.636719 96.75 83.5 96.75 C 83.363281 96.75 83.25 96.953125 83.25 97.199219 C 83.25 97.449219 83.109375 97.800781 82.9375 97.988281 C 82.6875 98.257812 82.6875 98.289062 82.9375 98.148438 C 83.144531 98.03125 83.25 98.148438 83.25 98.5 C 83.25 98.792969 83.136719 98.960938 83 98.875 C 82.835938 98.773438 82.75 101.042969 82.75 105.5 C 82.75 109.957031 82.835938 112.226562 83 112.125 C 83.15625 112.027344 83.25 112.539062 83.25 113.484375 C 83.25 114.328125 83.359375 115 83.5 115 C 83.636719 115 83.75 115.449219 83.75 116 C 83.75 116.550781 83.863281 117 84 117 C 84.136719 117 84.25 117.507812 84.25 118.125 C 84.25 118.742188 84.363281 119.25 84.5 119.25 C 84.636719 119.25 84.75 119.476562 84.75 119.75 C 84.75 120.023438 84.863281 120.25 85 120.25 C 85.136719 120.25 85.25 120.53125 85.25 120.875 C 85.25 121.21875 85.363281 121.5 85.5 121.5 C 85.636719 121.5 85.75 121.78125 85.75 122.125 C 85.75 122.46875 85.863281 122.75 86 122.75 C 86.136719 122.75 86.25 123.023438 86.25 123.359375 C 86.25 123.695312 86.363281 124.039062 86.5 124.125 C 86.636719 124.210938 86.75 124.5 86.75 124.765625 C 86.75 125.03125 86.863281 125.25 87 125.25 C 87.136719 125.25 87.25 125.398438 87.25 125.578125 C 87.25 125.757812 87.476562 126.148438 87.75 126.441406 C 88.023438 126.738281 88.25 127.144531 88.25 127.351562 C 88.25 127.554688 88.363281 127.789062 88.5 127.875 C 88.875 128.105469 88.800781 129.484375 88.394531 129.894531 C 88.09375 130.191406 86.367188 130.25 78.019531 130.25 C 71.507812 130.25 68 130.335938 68 130.5 C 68 130.636719 67.550781 130.75 67 130.75 C 66.449219 130.75 66 130.863281 66 131 C 66 131.136719 65.605469 131.25 65.125 131.25 C 64.644531 131.25 64.25 131.363281 64.25 131.5 C 64.25 131.636719 63.914062 131.75 63.5 131.75 C 63.085938 131.75 62.75 131.863281 62.75 132 C 62.75 132.136719 62.523438 132.25 62.25 132.25 C 61.976562 132.25 61.75 132.363281 61.75 132.5 C 61.75 132.636719 61.523438 132.75 61.25 132.75 C 60.976562 132.75 60.75 132.863281 60.75 133 C 60.75 133.136719 60.523438 133.25 60.25 133.25 C 59.976562 133.25 59.75 133.363281 59.75 133.5 C 59.75 133.636719 59.574219 133.75 59.355469 133.75 C 59.136719 133.75 58.542969 134.171875 58.03125 134.6875 C 57.523438 135.203125 56.882812 135.753906 56.613281 135.914062 C 56.34375 136.074219 56.15625 136.335938 56.195312 136.496094 C 56.230469 136.65625 56.15625 136.722656 56.027344 136.640625 C 55.753906 136.472656 53.75 138.324219 53.75 138.75 C 53.75 138.910156 53.300781 139.472656 52.75 140 C 52.199219 140.527344 51.75 141.113281 51.75 141.300781 C 51.75 141.488281 51.523438 141.800781 51.25 142 C 50.976562 142.199219 50.75 142.5625 50.75 142.804688 C 50.75 143.050781 50.636719 143.25 50.5 143.25 C 50.363281 143.25 50.25 143.476562 50.25 143.75 C 50.25 144.023438 50.136719 144.25 50 144.25 C 49.863281 144.25 49.75 144.476562 49.75 144.75 C 49.75 145.023438 49.636719 145.25 49.5 145.25 C 49.363281 145.25 49.25 145.476562 49.25 145.75 C 49.25 146.023438 49.136719 146.25 49 146.25 C 48.863281 146.25 48.75 146.652344 48.75 147.140625 C 48.75 147.667969 48.648438 147.96875 48.5 147.875 C 48.347656 147.78125 48.25 148.121094 48.25 148.734375 C 48.25 149.292969 48.136719 149.75 48 149.75 C 47.863281 149.75 47.75 150.144531 47.75 150.625 C 47.75 151.105469 47.636719 151.5 47.5 151.5 C 47.363281 151.5 47.25 152.097656 47.25 152.824219 C 47.25 153.554688 47.109375 154.300781 46.9375 154.488281 C 46.6875 154.757812 46.6875 154.789062 46.9375 154.648438 C 47.179688 154.507812 47.25 155.222656 47.25 157.859375 C 47.25 159.953125 47.34375 161.25 47.5 161.25 C 47.636719 161.25 47.75 161.699219 47.75 162.25 C 47.75 162.800781 47.863281 163.25 48 163.25 C 48.136719 163.25 48.25 163.636719 48.25 164.109375 C 48.25 164.582031 48.363281 165.039062 48.5 165.125 C 48.636719 165.210938 48.75 165.53125 48.75 165.839844 C 48.75 166.148438 48.890625 166.550781 49.0625 166.738281 C 49.316406 167.011719 49.304688 167.035156 49 166.871094 C 48.792969 166.761719 48.878906 166.949219 49.1875 167.289062 C 49.496094 167.628906 49.75 168.097656 49.75 168.328125 C 49.75 168.5625 49.863281 168.75 50 168.75 C 50.136719 168.75 50.25 168.976562 50.25 169.25 C 50.25 169.523438 50.363281 169.75 50.5 169.75 C 50.636719 169.75 50.75 169.949219 50.75 170.195312 C 50.75 170.4375 50.976562 170.800781 51.25 171 C 51.523438 171.199219 51.75 171.511719 51.75 171.699219 C 51.75 171.886719 52.199219 172.472656 52.75 173 C 53.300781 173.527344 53.75 174.082031 53.75 174.234375 C 53.75 174.621094 57.925781 178.75 58.316406 178.75 C 58.496094 178.75 58.800781 178.976562 59 179.25 C 59.199219 179.523438 59.5625 179.75 59.804688 179.75 C 60.050781 179.75 60.25 179.863281 60.25 180 C 60.25 180.136719 60.421875 180.25 60.636719 180.25 C 60.847656 180.25 61.261719 180.476562 61.558594 180.75 C 61.851562 181.023438 62.242188 181.25 62.421875 181.25 C 62.601562 181.25 62.75 181.363281 62.75 181.5 C 62.75 181.636719 63.085938 181.75 63.5 181.75 C 63.914062 181.75 64.25 181.863281 64.25 182 C 64.25 182.136719 64.757812 182.25 65.375 182.25 C 65.992188 182.25 66.5 182.363281 66.5 182.5 C 66.5 182.640625 67.167969 182.75 68 182.75 C 68.832031 182.75 69.5 182.859375 69.5 183 C 69.5 183.164062 88.25 183.25 125.25 183.25 C 162.25 183.25 181 183.164062 181 183 C 181 182.859375 181.667969 182.75 182.5 182.75 C 183.332031 182.75 184 182.640625 184 182.5 C 184 182.363281 184.507812 182.25 185.125 182.25 C 185.742188 182.25 186.25 182.136719 186.25 182 C 186.25 181.863281 186.585938 181.75 187 181.75 C 187.414062 181.75 187.75 181.636719 187.75 181.5 C 187.75 181.363281 187.976562 181.25 188.25 181.25 C 188.523438 181.25 188.75 181.136719 188.75 181 C 188.75 180.863281 188.976562 180.75 189.25 180.75 C 189.523438 180.75 189.75 180.636719 189.75 180.5 C 189.75 180.363281 189.949219 180.25 190.195312 180.25 C 190.4375 180.25 190.800781 180.023438 191 179.75 C 191.199219 179.476562 191.503906 179.25 191.683594 179.25 C 192.0625 179.25 198.75 172.625 198.75 172.25 C 198.75 172.109375 199.085938 171.640625 199.5 171.210938 C 199.914062 170.777344 200.25 170.273438 200.25 170.089844 C 200.25 169.902344 200.363281 169.75 200.5 169.75 C 200.636719 169.75 200.75 169.523438 200.75 169.25 C 200.75 168.976562 200.863281 168.75 201 168.75 C 201.136719 168.75 201.25 168.53125 201.25 168.265625 C 201.25 168 201.363281 167.710938 201.5 167.625 C 201.636719 167.539062 201.75 167.140625 201.75 166.734375 C 201.75 166.332031 201.863281 166 202 166 C 202.136719 166 202.25 165.664062 202.25 165.25 C 202.25 164.835938 202.363281 164.5 202.5 164.5 C 202.636719 164.5 202.75 164.050781 202.75 163.5 C 202.75 162.949219 202.863281 162.5 203 162.5 C 203.144531 162.5 203.25 161.75 203.25 160.75 C 203.25 159.75 203.355469 159 203.5 159 C 203.648438 159 203.75 158 203.75 156.5 C 203.75 155 203.648438 154 203.5 154 C 203.355469 154 203.25 153.203125 203.25 152.109375 C 203.25 150.914062 203.15625 150.277344 203 150.375 C 202.847656 150.46875 202.75 150.128906 202.75 149.515625 C 202.75 148.957031 202.636719 148.5 202.5 148.5 C 202.363281 148.5 202.25 148.164062 202.25 147.75 C 202.25 147.335938 202.136719 147 202 147 C 201.863281 147 201.75 146.710938 201.75 146.359375 C 201.75 145.996094 201.640625 145.789062 201.5 145.875 C 201.359375 145.960938 201.25 145.753906 201.25 145.390625 C 201.25 145.039062 201.136719 144.75 201 144.75 C 200.863281 144.75 200.75 144.523438 200.75 144.25 C 200.75 143.976562 200.636719 143.75 200.5 143.75 C 200.363281 143.75 200.25 143.523438 200.25 143.25 C 200.25 142.976562 200.136719 142.75 200 142.75 C 199.863281 142.75 199.75 142.550781 199.75 142.304688 C 199.75 142.0625 199.523438 141.699219 199.25 141.5 C 198.976562 141.300781 198.75 141.003906 198.75 140.839844 C 198.75 140.445312 192.5625 134.25 192.167969 134.25 C 192 134.25 191.699219 134.023438 191.5 133.75 C 191.300781 133.476562 190.992188 133.25 190.808594 133.25 C 190.628906 133.25 190.238281 133.023438 189.941406 132.75 C 189.648438 132.476562 189.097656 132.25 188.71875 132.25 C 188.339844 132.25 187.960938 132.136719 187.875 132 C 187.789062 131.863281 187.5 131.75 187.234375 131.75 C 186.96875 131.75 186.75 131.636719 186.75 131.5 C 186.75 131.363281 186.355469 131.25 185.875 131.25 C 185.394531 131.25 185 131.136719 185 131 C 185 130.863281 184.492188 130.75 183.875 130.75 C 183.257812 130.75 182.75 130.636719 182.75 130.5 C 182.75 130.335938 179.25 130.25 172.75 130.25 C 166.730469 130.25 162.75 130.15625 162.75 130.015625 C 162.75 129.890625 162.523438 129.710938 162.25 129.625 C 161.746094 129.464844 161.53125 128.5 162 128.5 C 162.136719 128.5 162.25 128.332031 162.25 128.125 C 162.25 127.917969 162.363281 127.75 162.5 127.75 C 162.636719 127.75 162.75 127.523438 162.75 127.25 C 162.75 126.976562 162.863281 126.75 163 126.75 C 163.136719 126.75 163.25 126.578125 163.25 126.363281 C 163.25 126.152344 163.476562 125.738281 163.75 125.441406 C 164.023438 125.148438 164.25 124.757812 164.25 124.578125 C 164.25 124.398438 164.363281 124.25 164.5 124.25 C 164.636719 124.25 164.75 123.964844 164.75 123.613281 C 164.75 123.265625 164.976562 122.738281 165.25 122.441406 C 165.570312 122.101562 165.75 121.558594 165.75 120.953125 C 165.75 120.429688 165.863281 120 166 120 C 166.136719 120 166.25 119.664062 166.25 119.25 C 166.25 118.835938 166.363281 118.5 166.5 118.5 C 166.636719 118.5 166.75 118.105469 166.75 117.625 C 166.75 117.144531 166.863281 116.75 167 116.75 C 167.136719 116.75 167.25 116.242188 167.25 115.625 C 167.25 115.007812 167.363281 114.5 167.5 114.5 C 167.640625 114.5 167.75 113.792969 167.75 112.875 C 167.75 111.957031 167.859375 111.25 168 111.25 C 168.160156 111.25 168.25 109.207031 168.25 105.625 C 168.25 102.042969 168.160156 100 168 100 C 167.863281 100 167.75 99.382812 167.75 98.625 C 167.75 97.867188 167.636719 97.25 167.5 97.25 C 167.363281 97.25 167.25 96.800781 167.25 96.25 C 167.25 95.699219 167.136719 95.25 167 95.25 C 166.863281 95.25 166.75 94.855469 166.75 94.375 C 166.75 93.894531 166.636719 93.5 166.5 93.5 C 166.363281 93.5 166.25 93.164062 166.25 92.75 C 166.25 92.335938 166.136719 92 166 92 C 165.863281 92 165.75 91.71875 165.75 91.375 C 165.75 91.03125 165.636719 90.75 165.5 90.75 C 165.363281 90.75 165.25 90.414062 165.25 90 C 165.25 89.585938 165.136719 89.25 165 89.25 C 164.863281 89.25 164.75 88.988281 164.75 88.671875 C 164.75 88.355469 164.523438 87.851562 164.25 87.558594 C 163.976562 87.261719 163.75 86.847656 163.75 86.636719 C 163.75 86.421875 163.636719 86.25 163.5 86.25 C 163.363281 86.25 163.25 86.023438 163.25 85.75 C 163.25 85.476562 163.136719 85.25 163 85.25 C 162.863281 85.25 162.75 85.101562 162.75 84.921875 C 162.75 84.742188 162.523438 84.351562 162.25 84.058594 C 161.976562 83.761719 161.75 83.347656 161.75 83.136719 C 161.75 82.921875 161.636719 82.75 161.5 82.75 C 161.363281 82.75 161.25 82.523438 161.25 82.25 C 161.25 81.976562 161.136719 81.75 161 81.75 C 160.863281 81.75 160.75 81.574219 160.75 81.355469 C 160.75 81.136719 160.300781 80.527344 159.75 80 C 159.199219 79.472656 158.75 78.863281 158.75 78.644531 C 158.75 78.425781 158.574219 78.25 158.355469 78.25 C 157.917969 78.25 157.25 77.667969 157.25 77.289062 C 157.25 76.96875 155.039062 74.75 154.71875 74.75 C 154.390625 74.75 153.25 73.589844 153.25 73.253906 C 153.25 73.105469 153.054688 72.910156 152.8125 72.820312 C 152.570312 72.730469 152.078125 72.339844 151.710938 71.953125 C 151.347656 71.566406 150.894531 71.25 150.703125 71.25 C 150.515625 71.25 150.199219 71.023438 150 70.75 C 149.800781 70.476562 149.453125 70.25 149.222656 70.25 C 148.996094 70.25 148.75 70.023438 148.675781 69.75 C 148.59375 69.425781 148.335938 69.25 147.953125 69.25 C 147.628906 69.25 147.199219 69.023438 147 68.75 C 146.800781 68.476562 146.4375 68.25 146.195312 68.25 C 145.949219 68.25 145.75 68.136719 145.75 68 C 145.75 67.863281 145.355469 67.75 144.875 67.75 C 144.394531 67.75 144 67.636719 144 67.5 C 144 67.363281 143.78125 67.25 143.515625 67.25 C 143.25 67.25 142.960938 67.136719 142.875 67 C 142.789062 66.863281 142.5 66.75 142.234375 66.75 C 141.96875 66.75 141.75 66.636719 141.75 66.5 C 141.75 66.363281 141.523438 66.25 141.25 66.25 C 140.976562 66.25 140.75 66.136719 140.75 66 C 140.75 65.863281 140.46875 65.75 140.125 65.75 C 139.78125 65.75 139.5 65.636719 139.5 65.5 C 139.5 65.363281 139.21875 65.25 138.875 65.25 C 138.53125 65.25 138.25 65.136719 138.25 65 C 138.25 64.863281 137.914062 64.75 137.5 64.75 C 137.085938 64.75 136.75 64.636719 136.75 64.5 C 136.75 64.363281 136.132812 64.25 135.375 64.25 C 134.617188 64.25 134 64.136719 134 64 C 134 63.859375 133.339844 63.75 132.515625 63.75 C 131.699219 63.75 130.960938 63.636719 130.875 63.5 C 130.789062 63.363281 129.960938 63.25 129.035156 63.25 C 128.03125 63.25 127.214844 63.125 127.011719 62.9375 C 126.742188 62.6875 126.710938 62.6875 126.851562 62.9375 M 130.25 76.625 C 138.277344 78.03125 142.734375 80.695312 148.882812 87.753906 C 152.425781 91.816406 155.226562 100.085938 153.671875 101.894531 L 153.09375 102.566406 L 149.257812 102.519531 C 144.480469 102.464844 145.855469 103.40625 135.996094 93.472656 C 127.5625 84.980469 126.980469 84.492188 125.296875 84.507812 C 123.871094 84.523438 123.761719 84.621094 114.523438 93.828125 L 105.828125 102.5 L 101.933594 102.5 C 96.824219 102.5 96.261719 102.1875 96.640625 99.550781 C 97.496094 93.601562 102.035156 86.390625 107.5 82.296875 C 107.980469 81.9375 108.714844 81.355469 109.132812 81.003906 C 111.007812 79.417969 116.957031 77.125 121 76.425781 C 122.558594 76.15625 128.285156 76.28125 130.25 76.625 M 127.546875 93.9375 C 128.125 94.453125 128.996094 95.316406 129.484375 95.855469 C 129.976562 96.390625 132.234375 98.699219 134.511719 100.980469 C 137.523438 104 138.710938 105.363281 138.894531 106 C 139.359375 107.65625 139.367188 121.550781 138.898438 122.453125 C 138.222656 123.761719 138.363281 123.75 125.253906 123.75 L 112.976562 123.75 L 112.378906 123.152344 C 111.519531 122.292969 111.46875 121.6875 111.550781 113.1875 L 111.625 105.503906 L 117.375 99.730469 C 124.871094 92.199219 125.316406 91.945312 127.546875 93.9375 M 120.113281 107.863281 C 118.464844 109.511719 119.457031 116.25 121.351562 116.25 C 123.128906 116.25 124.265625 111.707031 123.253906 108.640625 C 122.789062 107.234375 121.152344 106.828125 120.113281 107.863281 M 127.910156 107.910156 C 126.144531 109.675781 127.210938 116.25 129.261719 116.25 C 131.457031 116.25 132.285156 109.117188 130.273438 107.570312 C 129.609375 107.0625 128.613281 107.203125 127.910156 107.910156 M 104.953125 109.589844 L 105.625 110.261719 L 105.5625 116.316406 C 105.488281 123.523438 105.101562 124.519531 102.617188 123.894531 C 99.539062 123.121094 95.121094 111.300781 97.203125 109.417969 C 98.21875 108.496094 103.992188 108.628906 104.953125 109.589844 M 153.355469 109.035156 C 156.21875 110.34375 151.347656 124 148.015625 124 C 145.675781 124 145.25 122.78125 145.25 116.085938 C 145.25 110.300781 145.433594 109.375 146.621094 109.125 C 146.898438 109.066406 147.351562 108.972656 147.625 108.914062 C 148.726562 108.679688 152.765625 108.765625 153.355469 109.035156 M 137 130.5 C 137 130.636719 137.234375 130.75 137.519531 130.75 C 138.8125 130.75 139.203125 132.570312 138.136719 133.636719 C 137.796875 133.972656 137.347656 134.25 137.136719 134.25 C 136.921875 134.25 136.75 134.363281 136.75 134.5 C 136.75 134.636719 136.414062 134.75 136 134.75 C 135.585938 134.75 135.25 134.863281 135.25 135 C 135.25 135.136719 134.914062 135.25 134.5 135.25 C 134.085938 135.25 133.75 135.363281 133.75 135.5 C 133.75 135.636719 133.179688 135.75 132.484375 135.75 C 131.707031 135.75 131.28125 135.84375 131.375 136 C 131.46875 136.15625 131.003906 136.25 130.140625 136.25 C 129.375 136.25 128.75 136.363281 128.75 136.5 C 128.75 136.65625 127.410156 136.75 125.234375 136.75 C 122.957031 136.75 121.773438 136.660156 121.875 136.5 C 121.972656 136.34375 121.460938 136.25 120.515625 136.25 C 119.671875 136.25 119 136.140625 119 136 C 119 135.863281 118.605469 135.75 118.125 135.75 C 117.644531 135.75 117.25 135.636719 117.25 135.5 C 117.25 135.363281 116.914062 135.25 116.5 135.25 C 116.085938 135.25 115.75 135.136719 115.75 135 C 115.75 134.863281 115.414062 134.75 115 134.75 C 114.585938 134.75 114.25 134.636719 114.25 134.5 C 114.25 134.363281 114.078125 134.25 113.867188 134.25 C 113.300781 134.25 111.75 132.597656 111.75 131.992188 C 111.75 131.707031 111.84375 131.527344 111.953125 131.597656 C 112.066406 131.667969 112.316406 131.503906 112.507812 131.238281 C 112.703125 130.96875 113.0625 130.75 113.304688 130.75 C 113.550781 130.75 113.75 130.636719 113.75 130.5 C 113.75 130.335938 117.792969 130.25 125.375 130.25 C 132.957031 130.25 137 130.335938 137 130.5 M 161.421875 137.5625 C 163.125 139.363281 163.199219 140.765625 161.671875 142.441406 C 160.339844 143.902344 157.554688 143.582031 156.480469 141.839844 C 154.589844 138.78125 158.980469 134.984375 161.421875 137.5625 M 79.609375 145.238281 C 81.027344 146.171875 81.386719 147.738281 80.511719 149.171875 C 79.6875 150.523438 79.3125 150.613281 73.875 150.75 L 68.875 150.875 L 68.726562 153.75 L 72.050781 153.75 C 76.703125 153.753906 78.316406 154.890625 77.453125 157.566406 C 76.824219 159.515625 76.328125 159.671875 70.5625 159.730469 L 68.75 159.75 L 68.75 169.800781 L 67.898438 170.648438 C 66.429688 172.121094 64.40625 171.6875 63.3125 169.664062 C 62.941406 168.972656 62.875 167.789062 62.792969 160.195312 L 62.703125 151.511719 L 63.386719 149.714844 C 64.207031 147.570312 65.242188 146.351562 67.027344 145.429688 C 68.8125 144.511719 78.285156 144.367188 79.609375 145.238281 M 112.660156 145.785156 C 113.863281 146.949219 118.867188 154.292969 119.917969 156.4375 C 120.960938 158.570312 121.054688 158.199219 120.960938 152.394531 C 120.878906 147.300781 120.902344 147.003906 121.390625 146.332031 C 122.957031 144.191406 125.898438 144.5 126.90625 146.910156 C 127.523438 148.390625 127.398438 169.148438 126.761719 170.109375 C 126.160156 171.023438 125.359375 171.480469 124.324219 171.492188 C 122.59375 171.511719 121.851562 170.746094 119.53125 166.558594 C 117.417969 162.746094 113.804688 157.417969 113.683594 157.929688 C 113.621094 158.171875 113.546875 160.792969 113.519531 163.75 C 113.453125 169.957031 113.238281 170.683594 111.285156 171.269531 C 108.804688 172.011719 107.882812 170.542969 107.664062 165.484375 C 107.425781 159.9375 107.464844 147.628906 107.722656 146.949219 C 108.578125 144.699219 110.960938 144.136719 112.660156 145.785156 M 142.992188 145.355469 C 156.980469 150.089844 153.75 169.484375 138.96875 169.5 C 137.65625 169.5 137.488281 169.570312 136.558594 170.5 C 135.019531 172.039062 132.824219 171.777344 131.816406 169.933594 C 131.148438 168.714844 131.140625 147.804688 131.804688 146.589844 C 132.917969 144.554688 138.734375 143.914062 142.992188 145.355469 M 96.980469 145.800781 C 98.773438 146.457031 101.339844 148.980469 102.390625 151.125 L 103.125 152.625 L 103.207031 160.75 C 103.257812 166.152344 103.195312 169.183594 103.011719 169.800781 C 102.378906 171.9375 99.632812 172.542969 98.324219 170.832031 L 97.625 169.914062 L 97.375 154.085938 L 96.75 153.164062 C 94.871094 150.390625 90.242188 150.65625 88.777344 153.625 C 87.964844 155.265625 87.894531 157.859375 88.617188 159.503906 C 89.3125 161.082031 89.460938 161.105469 90.792969 159.859375 C 92.449219 158.308594 94.109375 158.414062 95.476562 160.152344 C 96.351562 161.265625 96.261719 166.78125 95.355469 167.621094 C 92.5 170.269531 85.628906 167.050781 83.128906 161.898438 C 78.605469 152.574219 87.4375 142.304688 96.980469 145.800781 M 181.367188 145.667969 C 189.394531 148.488281 191.933594 158.757812 186.070312 164.699219 C 185.3125 165.464844 184.890625 166.0625 185.070312 166.121094 C 185.238281 166.175781 186.015625 166.347656 186.800781 166.5 C 189.96875 167.125 190.921875 170.878906 188.199219 172.027344 C 184.898438 173.421875 180.117188 171.660156 177.613281 168.125 C 176.011719 165.871094 175.960938 165.820312 176.542969 167.0625 C 177.84375 169.839844 173.96875 168.949219 170.335938 165.632812 C 161 157.113281 169.605469 141.535156 181.367188 145.667969 M 161.253906 147.253906 L 161.957031 148.007812 L 162.046875 158.191406 C 162.136719 168.625 162.0625 169.734375 161.207031 170.660156 C 160.039062 171.925781 157.601562 171.417969 156.738281 169.726562 C 156.078125 168.4375 155.976562 149.507812 156.621094 148.257812 C 157.597656 146.367188 159.945312 145.855469 161.253906 147.253906 M 137.703125 151.1875 C 137.660156 151.289062 137.65625 154.046875 137.695312 157.3125 L 137.765625 163.25 L 139.617188 163.25 C 146.492188 163.25 148.382812 153.550781 141.929688 151.398438 C 140.707031 150.992188 137.84375 150.847656 137.703125 151.1875 M 175.375 151.550781 C 171.757812 152.8125 171.058594 158.144531 174.089844 161.328125 L 175 162.285156 L 175 161.136719 C 175 157.566406 177.84375 156.027344 180.15625 158.34375 C 180.765625 158.949219 181.25 159.671875 181.25 159.96875 C 181.25 161.636719 182.972656 159.128906 183.171875 157.164062 C 183.613281 152.914062 179.648438 150.0625 175.375 151.550781 "/>
<path style=" stroke:none;fill-rule:evenodd;fill:rgb(89.411765%,61.568627%,23.529412%);fill-opacity:1;" d="M 120.875 76.863281 C 108.441406 79.398438 99.140625 88.15625 97.230469 99.125 C 96.746094 101.914062 96.882812 102 101.691406 101.992188 L 105.625 101.984375 L 114.371094 93.347656 C 119.609375 88.171875 123.457031 84.566406 123.964844 84.355469 C 126.324219 83.367188 126.71875 83.648438 136.269531 93.179688 C 140.882812 97.785156 144.828125 101.648438 145.035156 101.765625 C 145.683594 102.125 152.90625 102.140625 153.339844 101.78125 C 154.445312 100.859375 153.339844 96.300781 150.671875 90.785156 C 148.769531 86.855469 139.789062 79.234375 136.097656 78.417969 C 135.699219 78.328125 134.53125 78.023438 133.5 77.738281 C 129.242188 76.558594 124.125 76.203125 120.875 76.863281 M 97.828125 109.546875 C 96.601562 110.140625 96.96875 113.105469 98.78125 117.183594 C 99.039062 117.765625 99.25 118.453125 99.25 118.707031 C 99.25 118.964844 99.457031 119.359375 99.714844 119.59375 C 99.96875 119.824219 100.4375 120.511719 100.75 121.125 C 101.65625 122.882812 103.210938 123.648438 104.207031 122.828125 C 104.847656 122.300781 104.941406 121.375 105.054688 114.667969 L 105.125 110.460938 L 104.421875 109.855469 C 103.648438 109.1875 99.023438 108.96875 97.828125 109.546875 M 146.828125 109.546875 C 145.703125 110.09375 145.609375 111.292969 146.027344 119.9375 C 146.039062 120.246094 146.144531 120.5 146.261719 120.5 C 146.375 120.5 146.457031 120.8125 146.445312 121.199219 C 146.398438 122.894531 147.75 123.695312 148.976562 122.695312 C 149.679688 122.121094 150.5 120.921875 150.5 120.464844 C 150.5 120.328125 150.78125 119.847656 151.125 119.398438 C 151.46875 118.945312 151.75 118.414062 151.75 118.214844 C 151.75 118.015625 151.851562 117.742188 151.976562 117.613281 C 152.679688 116.878906 154.097656 111.304688 153.835938 110.304688 C 153.578125 109.320312 148.449219 108.765625 146.828125 109.546875 M 158.625 137.308594 C 156.273438 138.109375 155.640625 140.691406 157.414062 142.25 C 160.289062 144.773438 164.121094 140.566406 161.320312 137.960938 C 160.476562 137.175781 159.621094 136.96875 158.625 137.308594 "/>
<path style=" stroke:none;fill-rule:evenodd;fill:rgb(40.784314%,45.098039%,47.843137%);fill-opacity:1;" d="M 123.835938 63.0625 C 123.773438 63.164062 124.476562 63.25 125.402344 63.25 C 126.328125 63.25 127 63.164062 126.894531 63.0625 C 126.792969 62.960938 126.089844 62.875 125.332031 62.875 C 124.574219 62.875 123.902344 62.960938 123.835938 63.0625 M 98.410156 72.394531 C 98.015625 72.742188 97.761719 73.09375 97.847656 73.179688 C 97.929688 73.265625 98.027344 73.285156 98.0625 73.230469 C 98.097656 73.171875 98.398438 72.816406 98.730469 72.4375 C 99.484375 71.585938 99.351562 71.566406 98.410156 72.394531 M 123.847656 93.546875 C 122.566406 94.515625 112.230469 104.855469 111.894531 105.5 C 111.644531 105.980469 111.578125 107.996094 111.613281 114.199219 L 111.65625 122.269531 L 112.332031 122.949219 L 113.011719 123.625 L 125.226562 123.695312 L 137.445312 123.765625 L 138.222656 123.109375 L 139 122.457031 L 139 114.335938 C 139 108.648438 138.914062 106.054688 138.710938 105.671875 C 138.332031 104.964844 127.671875 94.023438 126.792969 93.445312 C 125.886719 92.847656 124.71875 92.886719 123.847656 93.546875 M 132.511719 99.445312 C 139.328125 106.277344 138.703125 104.730469 138.660156 114.703125 L 138.625 122.527344 L 138 123.007812 C 137.238281 123.59375 114.242188 123.78125 113.171875 123.210938 C 112.023438 122.597656 112.015625 122.550781 112.007812 113.878906 L 112 105.636719 L 118.070312 99.59375 C 126.050781 91.644531 124.738281 91.660156 132.511719 99.445312 M 167.75 99.109375 C 167.75 99.308594 167.863281 99.539062 168 99.625 C 168.136719 99.710938 168.25 99.546875 168.25 99.265625 C 168.25 98.980469 168.136719 98.75 168 98.75 C 167.863281 98.75 167.75 98.910156 167.75 99.109375 M 82.480469 101.8125 C 82.324219 102.328125 82.339844 102.75 82.523438 102.75 C 82.648438 102.75 82.75 102.523438 82.75 102.25 C 82.75 101.847656 82.5625 101.542969 82.480469 101.8125 M 119.496094 107.8125 C 118.765625 109.015625 118.765625 114.484375 119.496094 115.6875 C 120.214844 116.867188 122.128906 116.890625 123.101562 115.730469 C 124.078125 114.570312 124.105469 108.582031 123.136719 107.613281 C 122.136719 106.613281 120.160156 106.722656 119.496094 107.8125 M 127.542969 107.578125 C 126.050781 109.167969 126.960938 116.539062 128.640625 116.484375 C 129.082031 116.46875 129.078125 116.449219 128.589844 116.25 C 127.445312 115.789062 127.25 115.113281 127.25 111.613281 C 127.25 107.84375 127.53125 107.25 129.3125 107.25 C 130.9375 107.25 131.25 107.980469 131.25 111.808594 L 131.25 115.050781 L 130.472656 115.773438 C 130.046875 116.171875 129.804688 116.5 129.9375 116.5 C 131.496094 116.5 132.316406 109.597656 130.984375 107.726562 C 130.289062 106.75 128.398438 106.671875 127.542969 107.578125 M 122.886719 107.863281 C 123.839844 108.816406 123.828125 114.570312 122.875 115.601562 C 121.910156 116.640625 120.296875 116.464844 119.675781 115.25 C 119.050781 114.027344 119.148438 108.949219 119.816406 107.925781 C 120.425781 107 121.988281 106.96875 122.886719 107.863281 M 82.253906 108.3125 C 82.25 108.691406 82.363281 109 82.5 109 C 82.816406 109 82.816406 108.488281 82.5 108 C 82.3125 107.707031 82.257812 107.777344 82.253906 108.3125 M 111.75 132.125 C 111.75 132.332031 111.863281 132.5 112 132.5 C 112.136719 132.5 112.25 132.332031 112.25 132.125 C 112.25 131.917969 112.136719 131.75 112 131.75 C 111.863281 131.75 111.75 131.917969 111.75 132.125 M 194.25 135.894531 C 194.25 136.078125 194.921875 136.75 195.109375 136.75 C 195.1875 136.75 195.113281 136.523438 194.941406 136.25 C 194.648438 135.78125 194.25 135.574219 194.25 135.894531 M 122.625 136.5 C 122.710938 136.636719 122.933594 136.75 123.125 136.75 C 123.316406 136.75 123.539062 136.636719 123.625 136.5 C 123.714844 136.359375 123.496094 136.25 123.125 136.25 C 122.753906 136.25 122.535156 136.359375 122.625 136.5 M 126.875 136.5 C 126.789062 136.640625 126.992188 136.75 127.34375 136.75 C 127.6875 136.75 128.039062 136.636719 128.125 136.5 C 128.210938 136.359375 128.007812 136.25 127.65625 136.25 C 127.3125 136.25 126.960938 136.363281 126.875 136.5 M 197.058594 138.75 C 197.351562 139.21875 197.75 139.425781 197.75 139.105469 C 197.75 138.921875 197.078125 138.25 196.890625 138.25 C 196.8125 138.25 196.886719 138.476562 197.058594 138.75 M 67.925781 145.105469 C 65.5 145.984375 64.316406 147.304688 63.167969 150.394531 C 62.558594 152.03125 62.871094 168.484375 63.535156 169.808594 C 64.300781 171.332031 65.816406 171.867188 67.253906 171.121094 C 68.511719 170.472656 68.613281 170.019531 68.75 164.625 L 68.875 159.625 L 72.421875 159.5 C 75.933594 159.375 75.976562 159.367188 76.734375 158.640625 C 78.296875 157.144531 77.277344 153.980469 75.25 154.023438 C 74.65625 154.039062 74.664062 154.050781 75.375 154.300781 C 76.492188 154.695312 76.945312 155.191406 77.121094 156.222656 C 77.519531 158.582031 76.453125 159.25 72.28125 159.25 C 68.105469 159.25 68.5 158.71875 68.5 164.363281 C 68.5 170.261719 68.292969 170.820312 66.078125 170.949219 C 64.863281 171.019531 64.757812 170.976562 64.113281 170.132812 L 63.433594 169.238281 L 63.402344 159.808594 L 63.375 150.375 L 64.074219 148.949219 C 65.671875 145.695312 67.367188 145.003906 73.753906 145.003906 L 78.636719 145 L 79.566406 145.769531 C 81.089844 147.019531 80.804688 149.191406 78.996094 150.125 C 78.429688 150.421875 77.234375 150.5 73.386719 150.5 L 68.5 150.5 L 68.59375 153.625 L 68.773438 150.75 L 73.539062 150.75 C 77.46875 150.75 78.453125 150.675781 79.179688 150.332031 C 81.121094 149.410156 81.523438 147.160156 80.015625 145.648438 L 79.242188 144.875 L 74.058594 144.816406 C 70.144531 144.773438 68.640625 144.84375 67.925781 145.105469 M 137.625 145.003906 C 146.769531 145.535156 151.40625 149.683594 151.53125 157.449219 C 151.558594 159.1875 151.582031 159.265625 151.75 158.25 C 152.949219 150.988281 146.789062 144.996094 138 144.867188 L 134.375 144.816406 L 137.625 145.003906 M 108.6875 145.6875 C 107.46875 146.964844 107.449219 147.164062 107.617188 158 C 107.8125 170.882812 107.890625 171.25 110.441406 171.25 C 113.070312 171.25 113.5 170.089844 113.5 163.011719 C 113.5 157.769531 113.648438 156.46875 114.105469 157.664062 C 114.191406 157.890625 115.316406 159.664062 116.601562 161.605469 C 117.886719 163.546875 119.332031 165.921875 119.820312 166.878906 C 122.046875 171.28125 124.359375 172.636719 126.230469 170.644531 C 127.113281 169.707031 127.160156 169.003906 127.078125 157.800781 C 126.988281 145.347656 126.902344 145 124 145 C 121.382812 145 121 145.96875 121 152.613281 C 121 155.574219 120.914062 158 120.8125 157.996094 C 120.710938 157.996094 120.175781 157.136719 119.625 156.089844 C 119.074219 155.042969 118.148438 153.496094 117.5625 152.65625 C 116.976562 151.8125 115.71875 149.984375 114.765625 148.59375 C 112.160156 144.792969 110.359375 143.933594 108.6875 145.6875 M 132.660156 145.617188 C 131.53125 146.660156 131.5 147 131.5 158.277344 C 131.5 169.671875 131.507812 169.75 132.691406 170.824219 C 133.847656 171.867188 135.992188 171.507812 136.902344 170.121094 C 137.214844 169.640625 137.523438 169.5 138.261719 169.5 C 144.589844 169.5 151.613281 164.5 151.476562 160.09375 C 151.460938 159.503906 151.398438 159.585938 151.132812 160.546875 C 149.808594 165.347656 144.804688 169 139.546875 169 L 137.421875 169 L 136.566406 170 C 135.464844 171.285156 133.761719 171.441406 132.675781 170.355469 C 131.761719 169.441406 131.703125 168.554688 131.792969 157.125 C 131.882812 146.125 131.867188 146.25 133.472656 145.375 C 133.890625 145.144531 133.980469 145.015625 133.722656 145.011719 C 133.503906 145.003906 133.023438 145.277344 132.660156 145.617188 M 90.375 145.46875 C 84.742188 146.933594 80.953125 153.339844 82.242188 159.21875 C 83.660156 165.679688 91.855469 170.785156 95.4375 167.4375 C 96.472656 166.472656 96.222656 160.9375 95.09375 159.808594 C 93.804688 158.519531 91.757812 158.679688 90.53125 160.167969 C 89.582031 161.316406 89.191406 161.164062 88.523438 159.382812 C 87.195312 155.832031 88.652344 151.855469 91.464844 151.347656 C 92.683594 151.128906 93.40625 150.714844 92.25 150.894531 C 90.578125 151.15625 90.328125 151.242188 89.65625 151.773438 C 88.71875 152.507812 87.5 155.296875 87.5 156.707031 C 87.5 158.375 89.082031 161.5 89.925781 161.5 C 90.109375 161.5 90.359375 161.246094 90.476562 160.9375 C 91 159.570312 92.65625 158.839844 93.875 159.441406 C 95.484375 160.234375 95.5 160.273438 95.5 163.90625 L 95.5 167.238281 L 94.761719 167.617188 C 89.773438 170.199219 82.488281 163.867188 82.40625 156.875 C 82.253906 144.28125 99.917969 141.003906 102.660156 153.117188 C 102.929688 154.308594 102.945312 154.328125 102.972656 153.476562 C 103.042969 151.261719 100.011719 147.304688 97.277344 146.042969 C 95.785156 145.355469 92.019531 145.042969 90.375 145.46875 M 111.992188 145.660156 C 112.375 145.886719 113.402344 147.140625 114.28125 148.449219 C 115.15625 149.753906 116.195312 151.230469 116.585938 151.726562 C 117.324219 152.660156 118.875 155.222656 119.988281 157.355469 C 121.300781 159.867188 121.515625 159.09375 121.359375 152.375 C 121.242188 147.152344 121.425781 146.246094 122.75 145.554688 C 123.667969 145.078125 125.207031 145.34375 125.976562 146.113281 L 126.625 146.761719 L 126.695312 157.9375 C 126.769531 170.066406 126.757812 170.207031 125.414062 170.832031 C 123.445312 171.742188 121.984375 170.558594 119.921875 166.375 C 119.652344 165.824219 118.996094 164.734375 118.464844 163.953125 C 117.933594 163.167969 117.5 162.453125 117.5 162.363281 C 117.5 162.269531 117.183594 161.785156 116.796875 161.285156 C 116.410156 160.785156 115.558594 159.5 114.902344 158.433594 C 113.308594 155.839844 113.25 155.960938 113.25 161.980469 C 113.25 168.492188 113.144531 169.316406 112.195312 170.265625 C 110.882812 171.578125 109.238281 171.183594 108.28125 169.328125 C 108.085938 168.949219 108 165.460938 108 157.867188 L 108 146.949219 L 108.851562 146.101562 C 109.816406 145.132812 110.851562 144.988281 111.992188 145.660156 M 177.875 145.511719 C 184.207031 146.019531 188.445312 150.15625 189.011719 156.375 L 189.195312 158.375 L 189.136719 156.113281 C 188.976562 150.078125 183.6875 145.15625 177.511719 145.289062 L 175.625 145.332031 L 177.875 145.511719 M 173.066406 146.113281 C 168.03125 148.457031 165.25 154.6875 166.816406 160.125 C 167.953125 164.074219 172.792969 168.5 175.972656 168.5 C 177.199219 168.5 177.183594 168.601562 176.234375 166.722656 C 175.816406 165.890625 175.515625 165.082031 175.566406 164.925781 C 175.617188 164.769531 175.964844 165.261719 176.332031 166.015625 C 178.5 170.449219 183.242188 173.179688 187.140625 172.246094 C 190.765625 171.375 190.417969 166.953125 186.695312 166.605469 L 185.625 166.503906 L 186.832031 166.855469 C 189.621094 167.671875 190.328125 170.195312 188.144531 171.527344 C 186.703125 172.40625 182.886719 172.074219 181.125 170.914062 C 176.476562 167.855469 173.8125 160.777344 176.390625 158.34375 C 177.332031 157.457031 177.269531 157.214844 176.28125 157.90625 C 175.488281 158.460938 175 159.730469 175 161.234375 L 175 162.488281 L 174.007812 161.410156 C 170.386719 157.484375 171.773438 152.144531 176.671875 151.15625 C 178.542969 150.78125 178.5625 150.769531 177.125 150.90625 C 171.800781 151.410156 169.859375 157.296875 173.636719 161.476562 C 174.222656 162.128906 174.621094 162.925781 174.898438 164.027344 C 175.125 164.90625 175.578125 166.15625 175.90625 166.804688 C 176.679688 168.335938 176.675781 168.34375 175.480469 168.152344 C 168.375 167.015625 164.195312 156.675781 168.429688 150.714844 C 169.96875 148.546875 172.25 146.652344 174.019531 146.066406 C 175.019531 145.738281 175.390625 145.535156 175 145.523438 C 174.65625 145.511719 173.785156 145.777344 173.066406 146.113281 M 157.960938 146.882812 C 156.269531 147.796875 156.25 147.949219 156.265625 158.15625 C 156.273438 163.226562 156.371094 167.929688 156.484375 168.609375 C 156.957031 171.511719 160.566406 172.371094 161.625 169.835938 C 162.21875 168.421875 162.179688 148.757812 161.582031 147.746094 C 160.863281 146.53125 159.296875 146.15625 157.960938 146.882812 M 160.839844 147.183594 C 161.640625 147.660156 161.75 148.992188 161.746094 158.429688 C 161.742188 170.417969 161.636719 171 159.390625 171 C 156.832031 171 156.550781 169.660156 156.515625 157.347656 C 156.496094 148.941406 156.828125 147.273438 158.59375 146.921875 C 159.144531 146.808594 160.46875 146.964844 160.839844 147.183594 M 137.550781 150.8125 C 137.320312 151.09375 137.257812 152.746094 137.308594 157.40625 L 137.375 163.625 L 139.5 163.601562 C 140.828125 163.589844 141.859375 163.449219 142.253906 163.226562 C 149.007812 159.4375 147.214844 151.222656 139.492188 150.578125 C 138.226562 150.472656 137.792969 150.523438 137.550781 150.8125 M 94.542969 151.394531 C 95.617188 151.726562 96.351562 152.355469 97.171875 153.652344 C 97.335938 153.914062 97.476562 154.011719 97.484375 153.875 C 97.542969 152.789062 95.425781 150.988281 94.125 151.019531 C 93.46875 151.03125 93.519531 151.078125 94.542969 151.394531 M 142.355469 151.515625 C 148.757812 153.910156 146.101562 163.785156 139.140625 163.449219 L 137.625 163.375 L 137.558594 157.503906 C 137.519531 154.277344 137.546875 151.492188 137.613281 151.316406 C 137.8125 150.796875 140.765625 150.917969 142.355469 151.515625 M 179.75 151.339844 C 181.578125 151.945312 182.71875 153.300781 183.242188 155.5 C 183.4375 156.328125 183.453125 156.339844 183.476562 155.660156 C 183.542969 153.765625 181.109375 150.953125 179.464844 151.027344 C 178.984375 151.046875 179.035156 151.105469 179.75 151.339844 M 97.515625 161.609375 C 97.496094 170.828125 97.789062 171.835938 100.453125 171.722656 C 100.949219 171.699219 100.992188 171.664062 100.625 171.585938 C 100.351562 171.527344 99.867188 171.425781 99.554688 171.359375 C 98.136719 171.054688 98.003906 170.292969 97.984375 162.375 C 97.972656 158.386719 97.867188 154.898438 97.75 154.625 C 97.625 154.328125 97.527344 157.199219 97.515625 161.609375 M 46.800781 156.503906 C 46.804688 157.46875 46.910156 158.320312 47.03125 158.394531 C 47.152344 158.46875 47.25 157.679688 47.25 156.640625 C 47.25 155.601562 47.148438 154.75 47.023438 154.75 C 46.898438 154.75 46.796875 155.539062 46.800781 156.503906 M 183.164062 157.84375 C 182.8125 159.554688 181.25 161.5625 181.25 160.3125 C 181.246094 159.089844 179.734375 157.609375 178.238281 157.367188 C 177.378906 157.226562 177.378906 157.230469 178.375 157.601562 C 179.578125 158.054688 180.710938 159.25 180.917969 160.277344 C 181.261719 161.988281 183.671875 159.398438 183.449219 157.5625 C 183.375 156.941406 183.34375 156.972656 183.164062 157.84375 M 188.5625 159.75 C 188.050781 161.726562 186.039062 164.644531 184.652344 165.421875 C 184.089844 165.734375 184.390625 166.5 185.074219 166.5 C 185.554688 166.5 185.5625 166.476562 185.167969 166.1875 C 184.773438 165.898438 184.820312 165.796875 185.664062 165 C 187.394531 163.367188 189.171875 160.152344 188.945312 159.0625 C 188.894531 158.816406 188.726562 159.117188 188.5625 159.75 M 203.382812 160.074219 C 203.277344 160.320312 203.257812 160.59375 203.34375 160.675781 C 203.597656 160.929688 203.800781 160.574219 203.6875 160.082031 C 203.582031 159.644531 203.570312 159.644531 203.382812 160.074219 M 102.75 169.648438 C 102.75 169.871094 102.402344 170.375 101.972656 170.773438 C 101.546875 171.171875 101.335938 171.5 101.507812 171.5 C 101.941406 171.5 103 170.214844 103 169.6875 C 103 169.445312 102.945312 169.25 102.875 169.25 C 102.804688 169.25 102.75 169.429688 102.75 169.648438 M 193.5625 177.625 C 193.097656 178.152344 193.183594 178.296875 193.75 177.941406 C 194.023438 177.769531 194.25 177.542969 194.25 177.441406 C 194.25 177.140625 193.90625 177.234375 193.5625 177.625 "/>
<path style=" stroke:none;fill-rule:evenodd;fill:rgb(42.352941%,34.509804%,22.745098%);fill-opacity:1;" d="M 124.691406 62.925781 C 125 62.988281 125.453125 62.984375 125.691406 62.921875 C 125.929688 62.859375 125.675781 62.808594 125.125 62.8125 C 124.574219 62.816406 124.378906 62.867188 124.691406 62.925781 M 118.75 63.5 C 118.75 63.636719 118.910156 63.75 119.109375 63.75 C 119.308594 63.75 119.539062 63.636719 119.625 63.5 C 119.710938 63.363281 119.546875 63.25 119.265625 63.25 C 118.980469 63.25 118.75 63.363281 118.75 63.5 M 130.886719 63.46875 C 131.097656 63.679688 132.242188 63.691406 132.113281 63.480469 C 132.054688 63.386719 131.722656 63.3125 131.371094 63.3125 C 131.015625 63.3125 130.800781 63.382812 130.886719 63.46875 M 144 67.5 C 144 67.636719 144.167969 67.75 144.375 67.75 C 144.582031 67.75 144.75 67.636719 144.75 67.5 C 144.75 67.363281 144.582031 67.25 144.375 67.25 C 144.167969 67.25 144 67.363281 144 67.5 M 98.8125 72.0625 C 98.847656 72.234375 98.753906 72.351562 98.605469 72.328125 C 98.453125 72.300781 98.332031 72.441406 98.332031 72.640625 C 98.332031 72.9375 98.414062 72.929688 98.785156 72.59375 C 99.035156 72.367188 99.179688 72.085938 99.105469 71.96875 C 98.90625 71.648438 98.742188 71.703125 98.8125 72.0625 M 153.75 73.890625 C 153.75 74.078125 154.421875 74.75 154.605469 74.75 C 154.925781 74.75 154.71875 74.351562 154.25 74.058594 C 153.976562 73.886719 153.75 73.8125 153.75 73.890625 M 121 76.425781 C 116.957031 77.125 111.007812 79.417969 109.132812 81.003906 C 108.714844 81.355469 107.980469 81.9375 107.5 82.296875 C 102.035156 86.390625 97.496094 93.601562 96.640625 99.550781 C 96.261719 102.1875 96.824219 102.5 101.933594 102.5 L 105.828125 102.5 L 114.523438 93.828125 C 123.761719 84.621094 123.871094 84.523438 125.296875 84.507812 C 126.980469 84.492188 127.5625 84.980469 135.996094 93.472656 C 145.855469 103.40625 144.480469 102.464844 149.257812 102.519531 L 153.09375 102.566406 L 153.671875 101.894531 C 155.226562 100.085938 152.425781 91.816406 148.882812 87.753906 C 142.824219 80.800781 137.457031 77.59375 130.25 76.628906 C 128.585938 76.40625 128.703125 76.679688 130.40625 76.996094 C 138.402344 78.488281 142.816406 81.15625 148.472656 87.910156 C 150.554688 90.398438 150.539062 90.367188 151.867188 93.5625 C 153.832031 98.269531 154.3125 100.96875 153.339844 101.78125 C 152.90625 102.140625 145.683594 102.125 145.035156 101.765625 C 144.828125 101.648438 140.882812 97.785156 136.269531 93.179688 C 126.71875 83.648438 126.324219 83.367188 123.964844 84.355469 C 123.457031 84.566406 119.609375 88.171875 114.371094 93.347656 L 105.625 101.984375 L 101.691406 101.992188 C 97.777344 102 97.761719 101.996094 97.355469 101.378906 C 96.316406 99.796875 98.929688 92.230469 101.707031 88.769531 C 106.277344 83.078125 110.996094 79.496094 115.625 78.207031 C 120.945312 76.726562 121.101562 76.699219 125.125 76.515625 L 128.875 76.34375 L 125.25 76.332031 C 123.257812 76.324219 121.34375 76.367188 121 76.425781 M 157.25 77.394531 C 157.25 77.65625 158.023438 78.3125 158.167969 78.167969 C 158.246094 78.089844 158.136719 77.851562 157.921875 77.636719 C 157.527344 77.238281 157.25 77.140625 157.25 77.394531 M 158.75 78.855469 C 158.75 79.117188 159.503906 79.828125 159.636719 79.695312 C 159.703125 79.632812 159.527344 79.375 159.25 79.125 C 158.976562 78.875 158.75 78.753906 158.75 78.855469 M 91.054688 79.753906 C 90.761719 80.222656 90.777344 80.238281 91.246094 79.945312 C 91.75 79.628906 91.921875 79.25 91.558594 79.25 C 91.457031 79.25 91.226562 79.476562 91.054688 79.753906 M 83.382812 96.074219 C 83.277344 96.320312 83.257812 96.59375 83.34375 96.675781 C 83.597656 96.929688 83.800781 96.574219 83.6875 96.082031 C 83.582031 95.644531 83.570312 95.644531 83.382812 96.074219 M 134.25 100.875 C 135.550781 102.179688 136.671875 103.25 136.738281 103.25 C 136.808594 103.25 135.800781 102.179688 134.5 100.875 C 133.199219 99.570312 132.078125 98.5 132.011719 98.5 C 131.941406 98.5 132.949219 99.570312 134.25 100.875 M 82.28125 105.6875 C 82.261719 106.753906 82.359375 107.792969 82.496094 108 C 82.667969 108.261719 82.742188 107.675781 82.746094 106.0625 C 82.75 104.789062 82.652344 103.75 82.53125 103.75 C 82.414062 103.75 82.300781 104.621094 82.28125 105.6875 M 99.003906 108.921875 C 96.71875 109.101562 96.238281 109.988281 96.851562 112.882812 C 98.640625 121.351562 102.617188 126.265625 105.035156 123 C 105.453125 122.4375 105.507812 121.765625 105.5625 116.316406 L 105.625 110.261719 L 104.953125 109.589844 C 104.234375 108.871094 102.34375 108.660156 99.003906 108.921875 M 147.625 108.914062 C 147.351562 108.972656 146.898438 109.066406 146.621094 109.125 C 145.433594 109.375 145.25 110.300781 145.25 116.085938 C 145.25 122.78125 145.675781 124 148.015625 124 C 151.347656 124 156.21875 110.34375 153.355469 109.035156 C 152.765625 108.765625 148.726562 108.679688 147.625 108.914062 M 104.421875 109.855469 L 105.125 110.460938 L 105.054688 114.667969 C 104.941406 121.375 104.847656 122.300781 104.207031 122.828125 C 103.210938 123.648438 101.65625 122.882812 100.75 121.125 C 100.4375 120.511719 99.96875 119.824219 99.714844 119.59375 C 99.457031 119.359375 99.25 118.964844 99.25 118.707031 C 99.25 118.453125 99.035156 117.765625 98.769531 117.183594 C 98.507812 116.601562 98.171875 115.730469 98.023438 115.25 C 97.875 114.769531 97.585938 113.835938 97.375 113.179688 C 96.773438 111.257812 96.933594 109.980469 97.835938 109.546875 C 99.023438 108.96875 103.648438 109.1875 104.421875 109.855469 M 139.109375 115.625 C 139.109375 119.199219 139.144531 120.628906 139.1875 118.796875 C 139.230469 116.96875 139.230469 114.042969 139.1875 112.296875 C 139.144531 110.550781 139.109375 112.050781 139.109375 115.625 M 153.09375 109.53125 C 153.871094 109.886719 154.019531 110.46875 153.753906 112.085938 C 153.515625 113.546875 152.324219 117.253906 151.976562 117.613281 C 151.851562 117.742188 151.75 118.015625 151.75 118.214844 C 151.75 118.414062 151.46875 118.945312 151.125 119.398438 C 150.78125 119.847656 150.5 120.328125 150.5 120.464844 C 150.5 120.921875 149.679688 122.121094 148.976562 122.695312 C 147.75 123.695312 146.398438 122.894531 146.445312 121.199219 C 146.457031 120.8125 146.375 120.5 146.261719 120.5 C 146.144531 120.5 146.039062 120.246094 146.027344 119.9375 C 145.609375 111.292969 145.703125 110.09375 146.828125 109.546875 C 147.5625 109.191406 152.320312 109.179688 153.09375 109.53125 M 119.339844 112.375 C 119.339844 113.613281 119.378906 114.148438 119.433594 113.570312 C 119.484375 112.988281 119.484375 111.976562 119.433594 111.320312 C 119.382812 110.664062 119.339844 111.136719 119.339844 112.375 M 111.558594 111.5 C 111.558594 111.980469 111.609375 112.179688 111.671875 111.9375 C 111.734375 111.695312 111.734375 111.304688 111.671875 111.0625 C 111.609375 110.820312 111.558594 111.019531 111.558594 111.5 M 167.75 111.75 C 167.75 112.023438 167.863281 112.25 168 112.25 C 168.136719 112.25 168.25 112.023438 168.25 111.75 C 168.25 111.476562 168.136719 111.25 168 111.25 C 167.863281 111.25 167.75 111.476562 167.75 111.75 M 82.832031 112.390625 C 82.75 112.609375 82.8125 112.910156 82.96875 113.066406 C 83.175781 113.277344 83.25 113.175781 83.25 112.675781 C 83.25 111.921875 83.0625 111.796875 82.832031 112.390625 M 111.59375 115.125 C 111.59375 116.636719 111.636719 117.222656 111.683594 116.429688 C 111.734375 115.632812 111.734375 114.394531 111.683594 113.679688 C 111.632812 112.960938 111.59375 113.613281 111.59375 115.125 M 166.25 118.875 C 166.25 119.082031 166.363281 119.25 166.5 119.25 C 166.636719 119.25 166.75 119.082031 166.75 118.875 C 166.75 118.667969 166.636719 118.5 166.5 118.5 C 166.363281 118.5 166.25 118.667969 166.25 118.875 M 113.75 130.480469 C 113.75 130.613281 118.515625 130.707031 125.375 130.710938 C 132.332031 130.710938 137 130.621094 137 130.480469 C 137 130.34375 132.328125 130.25 125.375 130.25 C 118.515625 130.25 113.75 130.34375 113.75 130.480469 M 185 131 C 185 131.136719 185.167969 131.25 185.375 131.25 C 185.582031 131.25 185.75 131.136719 185.75 131 C 185.75 130.863281 185.582031 130.75 185.375 130.75 C 185.167969 130.75 185 130.863281 185 131 M 57.039062 135.152344 C 56.582031 135.667969 56.875 135.910156 57.363281 135.421875 C 57.574219 135.210938 57.75 134.972656 57.75 134.894531 C 57.75 134.628906 57.378906 134.765625 57.039062 135.152344 M 121.875 136.5 C 121.789062 136.636719 121.957031 136.75 122.25 136.75 C 122.542969 136.75 122.710938 136.636719 122.625 136.5 C 122.539062 136.363281 122.371094 136.25 122.25 136.25 C 122.128906 136.25 121.960938 136.363281 121.875 136.5 M 157.875 137.214844 C 155.277344 138.820312 155.398438 142.097656 158.097656 143.128906 C 160.824219 144.167969 163.730469 141.375 162.46875 138.921875 C 161.429688 136.890625 159.535156 136.1875 157.875 137.214844 M 195.875 137.75 C 196.410156 138.300781 196.898438 138.75 196.953125 138.75 C 197.140625 138.75 196.171875 137.382812 195.769531 137.070312 C 194.894531 136.394531 194.960938 136.8125 195.875 137.75 M 161.320312 137.960938 C 163.863281 140.328125 160.90625 144.257812 157.792969 142.644531 C 156.707031 142.085938 156.160156 140.714844 156.515625 139.4375 C 157.117188 137.253906 159.707031 136.457031 161.320312 137.960938 M 109.941406 144.925781 C 110.25 144.988281 110.703125 144.984375 110.941406 144.921875 C 111.179688 144.859375 110.925781 144.808594 110.375 144.8125 C 109.824219 144.816406 109.628906 144.867188 109.941406 144.925781 M 92.4375 145.175781 C 92.746094 145.234375 93.253906 145.234375 93.5625 145.175781 C 93.871094 145.117188 93.617188 145.066406 93 145.066406 C 92.382812 145.066406 92.128906 145.117188 92.4375 145.175781 M 177.3125 145.171875 C 177.554688 145.234375 177.945312 145.234375 178.1875 145.171875 C 178.429688 145.109375 178.230469 145.058594 177.75 145.058594 C 177.269531 145.058594 177.070312 145.109375 177.3125 145.171875 M 120.816406 148.5 C 120.816406 149.117188 120.867188 149.371094 120.925781 149.0625 C 120.984375 148.753906 120.984375 148.246094 120.925781 147.9375 C 120.867188 147.628906 120.816406 147.882812 120.816406 148.5 M 127.089844 149.75 C 127.089844 151.054688 127.132812 151.589844 127.183594 150.9375 C 127.234375 150.285156 127.234375 149.214844 127.183594 148.5625 C 127.132812 147.910156 127.089844 148.445312 127.089844 149.75 M 202.25 148.125 C 202.25 148.332031 202.363281 148.5 202.5 148.5 C 202.636719 148.5 202.75 148.332031 202.75 148.125 C 202.75 147.917969 202.636719 147.75 202.5 147.75 C 202.363281 147.75 202.25 147.917969 202.25 148.125 M 47.882812 149.074219 C 47.777344 149.320312 47.757812 149.59375 47.84375 149.675781 C 48.097656 149.929688 48.300781 149.574219 48.1875 149.082031 C 48.082031 148.644531 48.070312 148.644531 47.882812 149.074219 M 131.347656 152.25 C 131.347656 154.105469 131.386719 154.867188 131.4375 153.9375 C 131.484375 153.007812 131.484375 151.492188 131.4375 150.5625 C 131.386719 149.632812 131.347656 150.394531 131.347656 152.25 M 47.25 151.125 C 47.25 151.332031 47.363281 151.5 47.5 151.5 C 47.636719 151.5 47.75 151.332031 47.75 151.125 C 47.75 150.917969 47.636719 150.75 47.5 150.75 C 47.363281 150.75 47.25 150.917969 47.25 151.125 M 177.4375 151.175781 C 177.746094 151.234375 178.253906 151.234375 178.5625 151.175781 C 178.871094 151.117188 178.617188 151.066406 178 151.066406 C 177.382812 151.066406 177.128906 151.117188 177.4375 151.175781 M 137.617188 157.625 L 137.625 163.375 L 139.3125 163.394531 L 141 163.410156 L 139.378906 163.320312 L 137.757812 163.226562 L 137.609375 151.875 L 137.617188 157.625 M 203.25 153.625 C 203.25 153.832031 203.363281 154 203.5 154 C 203.636719 154 203.75 153.832031 203.75 153.625 C 203.75 153.417969 203.636719 153.25 203.5 153.25 C 203.363281 153.25 203.25 153.417969 203.25 153.625 M 68.71875 153.820312 C 68.828125 153.925781 70.425781 153.984375 72.269531 153.945312 L 75.625 153.875 L 72.074219 153.75 C 70.121094 153.679688 68.609375 153.710938 68.71875 153.820312 M 103.113281 161.5 C 103.113281 165.96875 103.144531 167.796875 103.1875 165.5625 C 103.230469 163.328125 103.230469 159.671875 103.1875 157.4375 C 103.144531 155.203125 103.113281 157.03125 103.113281 161.5 M 127.105469 159 C 127.105469 161.820312 127.140625 162.972656 127.1875 161.5625 C 127.230469 160.152344 127.230469 157.847656 127.1875 156.4375 C 127.140625 155.027344 127.105469 156.179688 127.105469 159 M 81.808594 156.25 C 81.808594 156.730469 81.859375 156.929688 81.921875 156.6875 C 81.984375 156.445312 81.984375 156.054688 81.921875 155.8125 C 81.859375 155.570312 81.808594 155.769531 81.808594 156.25 M 172.078125 156.875 C 172.078125 157.699219 172.125 158.007812 172.179688 157.558594 C 172.238281 157.109375 172.234375 156.433594 172.179688 156.058594 C 172.121094 155.683594 172.078125 156.050781 172.078125 156.875 M 131.347656 159 C 131.347656 160.855469 131.386719 161.617188 131.4375 160.6875 C 131.484375 159.757812 131.484375 158.242188 131.4375 157.3125 C 131.386719 156.382812 131.347656 157.144531 131.347656 159 M 62.855469 161.5 C 62.855469 164.59375 62.890625 165.859375 62.9375 164.3125 C 62.980469 162.765625 62.980469 160.234375 62.9375 158.6875 C 62.890625 157.140625 62.855469 158.40625 62.855469 161.5 M 107.601562 160.5 C 107.601562 162.632812 107.640625 163.503906 107.6875 162.4375 C 107.734375 161.371094 107.734375 159.628906 107.6875 158.5625 C 107.640625 157.496094 107.601562 158.367188 107.601562 160.5 M 203.25 159.515625 C 203.25 159.796875 203.363281 159.960938 203.5 159.875 C 203.636719 159.789062 203.75 159.558594 203.75 159.359375 C 203.75 159.160156 203.636719 159 203.5 159 C 203.363281 159 203.25 159.230469 203.25 159.515625 M 69.8125 159.683594 C 70.328125 159.734375 71.171875 159.734375 71.6875 159.683594 C 72.203125 159.628906 71.78125 159.582031 70.75 159.582031 C 69.71875 159.582031 69.296875 159.628906 69.8125 159.683594 M 73.566406 159.679688 C 73.945312 159.738281 74.507812 159.734375 74.816406 159.675781 C 75.125 159.617188 74.8125 159.570312 74.125 159.570312 C 73.4375 159.574219 73.1875 159.621094 73.566406 159.679688 M 202.75 162.875 C 202.75 163.082031 202.863281 163.25 203 163.25 C 203.136719 163.25 203.25 163.082031 203.25 162.875 C 203.25 162.667969 203.136719 162.5 203 162.5 C 202.863281 162.5 202.75 162.667969 202.75 162.875 M 131.339844 166.125 C 131.339844 167.363281 131.378906 167.898438 131.433594 167.320312 C 131.484375 166.738281 131.484375 165.726562 131.433594 165.070312 C 131.382812 164.414062 131.339844 164.886719 131.339844 166.125 M 148.363281 165.5625 L 147.375 166.625 L 148.4375 165.636719 C 149.425781 164.71875 149.613281 164.5 149.425781 164.5 C 149.386719 164.5 148.90625 164.976562 148.363281 165.5625 M 175.5 165.105469 C 175.5 165.304688 175.664062 165.628906 175.863281 165.828125 C 176.0625 166.027344 176.148438 166.277344 176.050781 166.386719 C 175.953125 166.492188 176.007812 166.503906 176.167969 166.414062 C 176.382812 166.289062 176.363281 166.054688 176.085938 165.496094 C 175.675781 164.675781 175.5 164.558594 175.5 165.105469 M 162.070312 167.375 C 162.074219 168.0625 162.121094 168.3125 162.179688 167.933594 C 162.238281 167.554688 162.234375 166.992188 162.175781 166.683594 C 162.117188 166.375 162.070312 166.6875 162.070312 167.375 M 195.289062 175.910156 C 194.691406 176.53125 194.261719 177.09375 194.335938 177.167969 C 194.460938 177.292969 195.726562 176.113281 196.46875 175.179688 C 197.15625 174.3125 196.34375 174.816406 195.289062 175.910156 M 181 183 C 181 183.136719 181.21875 183.25 181.484375 183.25 C 181.75 183.25 182.039062 183.136719 182.125 183 C 182.210938 182.859375 182.003906 182.75 181.640625 182.75 C 181.289062 182.75 181 182.863281 181 183 "/>
</g>
</svg>
